<svg xmlns="http://www.w3.org/2000/svg" width="500" height="500" viewBox="0 0 500 500">
  <rect width="100%" height="100%" fill="black" />
  <rect x="0.0" y="0.0" width="100.0" height="100.0" fill="lightskyblue" stroke="black" stroke-width="1" />
  <rect x="100.0" y="0.0" width="100.0" height="100.0" fill="moccasin" stroke="black" stroke-width="1" />
  <rect x="200.0" y="0.0" width="100.0" height="100.0" fill="darkseagreen" stroke="black" stroke-width="1" />
  <rect x="300.0" y="0.0" width="100.0" height="100.0" fill="moccasin" stroke="black" stroke-width="1" />
  <rect x="400.0" y="0.0" width="100.0" height="100.0" fill="lightskyblue" stroke="black" stroke-width="1" />
  <rect x="0.0" y="100.0" width="100.0" height="100.0" fill="moccasin" stroke="black" stroke-width="1" />
  <rect x="100.0" y="100.0" width="100.0" height="100.0" fill="darkseagreen" stroke="black" stroke-width="1" />
  <rect x="200.0" y="100.0" width="100.0" height="100.0" fill="moccasin" stroke="black" stroke-width="1" />
  <rect x="300.0" y="100.0" width="100.0" height="100.0" fill="darkseagreen" stroke="black" stroke-width="1" />
  <rect x="400.0" y="100.0" width="100.0" height="100.0" fill="moccasin" stroke="black" stroke-width="1" />
  <rect x="0.0" y="200.0" width="100.0" height="100.0" fill="darkseagreen" stroke="black" stroke-width="1" />
  <rect x="100.0" y="200.0" width="100.0" height="100.0" fill="moccasin" stroke="black" stroke-width="1" />
  <rect x="200.0" y="200.0" width="100.0" height="100.0" fill="white" stroke="black" stroke-width="1" />
  <text x="250.0" y="250.0" font-family="Open Sans" font-size="16" fill="black" text-anchor="middle" dominant-baseline="middle">FREE SPACE</text>
  <rect x="300.0" y="200.0" width="100.0" height="100.0" fill="moccasin" stroke="black" stroke-width="1" />
  <rect x="400.0" y="200.0" width="100.0" height="100.0" fill="darkseagreen" stroke="black" stroke-width="1" />
  <rect x="0.0" y="300.0" width="100.0" height="100.0" fill="moccasin" stroke="black" stroke-width="1" />
  <rect x="100.0" y="300.0" width="100.0" height="100.0" fill="darkseagreen" stroke="black" stroke-width="1" />
  <rect x="200.0" y="300.0" width="100.0" height="100.0" fill="moccasin" stroke="black" stroke-width="1" />
  <rect x="300.0" y="300.0" width="100.0" height="100.0" fill="darkseagreen" stroke="black" stroke-width="1" />
  <rect x="400.0" y="300.0" width="100.0" height="100.0" fill="moccasin" stroke="black" stroke-width="1" />
  <rect x="0.0" y="400.0" width="100.0" height="100.0" fill="lightskyblue" stroke="black" stroke-width="1" />
  <rect x="100.0" y="400.0" width="100.0" height="100.0" fill="moccasin" stroke="black" stroke-width="1" />
  <rect x="200.0" y="400.0" width="100.0" height="100.0" fill="darkseagreen" stroke="black" stroke-width="1" />
  <rect x="300.0" y="400.0" width="100.0" height="100.0" fill="moccasin" stroke="black" stroke-width="1" />
  <rect x="400.0" y="400.0" width="100.0" height="100.0" fill="lightskyblue" stroke="black" stroke-width="1" />
</svg>